<?xml version="1.0" encoding="utf-8"?>
<!-- Generator: Adobe Illustrator 21.0.0, SVG Export Plug-In . SVG Version: 6.00 Build 0)  -->
<svg version="1.1" id="Calque_1" xmlns="http://www.w3.org/2000/svg" xmlns:xlink="http://www.w3.org/1999/xlink" x="0px" y="0px"
	 viewBox="0 0 444.1 114" style="enable-background:new 0 0 444.1 114;" xml:space="preserve">
<style type="text/css">
	.st0{fill:#FFFFFF;}
	.st1{fill:none;stroke:#000000;stroke-width:3;stroke-miterlimit:10;}
</style>
<title>Select</title>
<g id="XMLID_1_">
	<g>
		<g id="XMLID_2_">
			<g>
				<polygon class="st0" points="444.1,0 426.1,54 222,54 18,54 0,0 				"/>
				<polygon class="st0" points="426.1,54 416.1,84 222,84 222,54 				"/>
				<polygon class="st0" points="416.1,84 406.1,114 222,114 222,84 				"/>
				<polygon class="st0" points="222,84 222,114 38,114 28,84 				"/>
				<polygon class="st0" points="222,54 222,84 28,84 18,54 				"/>
			</g>
			<g>
				<line class="st1" x1="38" y1="114" x2="28" y2="84"/>
				<line class="st1" x1="28" y1="84" x2="18" y2="54"/>
				<line class="st1" x1="18" y1="54" x2="0" y2="0"/>
				<line class="st1" x1="0" y1="0" x2="444.1" y2="0"/>
				<polyline class="st1" points="444.1,0 426.1,54 416.1,84 406.1,114 				"/>
				<polyline class="st1" points="38,114 222,114 406.1,114 				"/>
			</g>
		</g>
	</g>
</g>
<line class="st1" x1="222" y1="113" x2="222" y2="83"/>
<line class="st1" x1="28" y1="84" x2="416.1" y2="84"/>
</svg>
