<?xml version="1.0" encoding="utf-8"?>
<!-- Generator: Adobe Illustrator 21.1.0, SVG Export Plug-In . SVG Version: 6.00 Build 0)  -->
<svg version="1.1" id="Calque_1" xmlns="http://www.w3.org/2000/svg" xmlns:xlink="http://www.w3.org/1999/xlink" x="0px" y="0px"
	 viewBox="0 0 444.1 204" style="enable-background:new 0 0 444.1 204;" xml:space="preserve">
<style type="text/css">
	.st0{fill:#FFFFFF;}
	.st1{fill:none;stroke:#000000;stroke-width:5;stroke-miterlimit:10;}
</style>
<title>Select</title>
<g id="Calque_2">
	<g id="XMLID_1_">
		<g>
			<polygon class="st0" points="405.4,116.1 376.1,204 222,204 222,116.1 			"/>
			<polygon class="st0" points="222,116.1 222,204 68,204 38.7,116.1 			"/>
			<polygon class="st0" points="444.1,0 405.4,116.1 222,116.1 38.7,116.1 0,0 			"/>
		</g>
		<g>
			<line class="st1" x1="0" y1="0" x2="444.1" y2="0"/>
			<polyline class="st1" points="68,204 222,204 376.1,204 			"/>
			<polyline class="st1" points="0,0 38.7,116.1 68,204 			"/>
			<polyline class="st1" points="444.1,0 405.4,116.1 376.1,204 			"/>
			<polyline class="st1" points="38.7,116.1 222,116.1 405.4,116.1 			"/>
			<line class="st1" x1="222" y1="116.1" x2="222" y2="204"/>
		</g>
	</g>
</g>
</svg>
