<?xml version="1.0" encoding="utf-8"?>
<!-- Generator: Adobe Illustrator 21.1.0, SVG Export Plug-In . SVG Version: 6.00 Build 0)  -->
<svg version="1.1" id="Calque_1" xmlns="http://www.w3.org/2000/svg" xmlns:xlink="http://www.w3.org/1999/xlink" x="0px" y="0px"
	 viewBox="0 0 444.1 204" style="enable-background:new 0 0 444.1 204;" xml:space="preserve">
<style type="text/css">
	.st0{fill:#FFFFFF;}
	.st1{fill:none;stroke:#000000;stroke-width:5;stroke-miterlimit:10;}
</style>
<title>Select</title>
<g id="XMLID_1_">
	<g>
		<polygon class="st0" points="390.7,160.1 376.1,204 222,204 222,203.2 222,160.2 222,160.1 390.7,160.1 		"/>
		<polygon class="st0" points="222,203.2 222,204 68,204 53.4,160.1 53.4,160.1 222,160.1 222,160.2 		"/>
		<polygon class="st0" points="222,117.1 222,160.1 53.4,160.1 53.4,160.1 38.7,116.1 222,116.1 		"/>
		<polygon class="st0" points="405.4,116.1 390.7,160.1 390.7,160.1 222,160.1 222,117.1 222,116.1 		"/>
		<polygon class="st0" points="419.8,73 405.4,116.1 222,116.1 222,73 		"/>
		<polygon class="st0" points="222,73 222,116.1 38.7,116.1 24.3,73 		"/>
		<polygon class="st0" points="444.1,0 419.8,73 222,73 24.3,73 0,0 		"/>
	</g>
	<g>
		<line class="st1" x1="0" y1="0" x2="444.1" y2="0"/>
		<polyline class="st1" points="68,204 222,204 376.1,204 		"/>
		<polyline class="st1" points="0,0 24.3,73 38.7,116.1 53.4,160.1 68,204 		"/>
		<polyline class="st1" points="444.1,0 419.8,73 405.4,116.1 390.7,160.1 376.1,204 		"/>
		<polyline class="st1" points="38.7,116.1 222,116.1 405.4,116.1 		"/>
		<polyline class="st1" points="53.4,160.1 222,160.1 390.7,160.1 		"/>
		<line class="st1" x1="222" y1="116.1" x2="222" y2="73"/>
		<line class="st1" x1="222" y1="203.2" x2="222" y2="160.2"/>
		<polyline class="st1" points="222,160.2 222,160.1 222,117.1 		"/>
		<polyline class="st1" points="24.3,73 24.3,73 222,73 419.8,73 419.8,73 		"/>
	</g>
</g>
</svg>
