<?xml version="1.0" encoding="utf-8"?>
<!-- Generator: Adobe Illustrator 21.0.0, SVG Export Plug-In . SVG Version: 6.00 Build 0)  -->
<svg version="1.1" id="Calque_1" xmlns="http://www.w3.org/2000/svg" xmlns:xlink="http://www.w3.org/1999/xlink" x="0px" y="0px"
	 viewBox="0 0 444.1 144" style="enable-background:new 0 0 444.1 144;" xml:space="preserve">
<style type="text/css">
	.st0{fill:#FFFFFF;}
	.st1{fill:none;stroke:#000000;stroke-width:3;stroke-miterlimit:10;}
</style>
<title>Select</title>
<g id="XMLID_3_">
	<g>
		<polygon class="st0" points="222,84 28,84 18,54 0,0 444.1,0 426.1,54 416.1,84 		"/>
		<polygon class="st0" points="416.1,84 406.1,114 222,114 222,113 222,84 		"/>
		<polygon class="st0" points="406.1,114 396.1,144 222,144 222,114 		"/>
		<polygon class="st0" points="222,114 222,144 48,144 38,114 		"/>
		<polygon class="st0" points="222,113 222,114 38,114 28,84 222,84 		"/>
	</g>
	<g>
		<line class="st1" x1="48" y1="144" x2="38" y2="114"/>
		<line class="st1" x1="38" y1="114" x2="28" y2="84"/>
		<line class="st1" x1="28" y1="84" x2="18" y2="54"/>
		<line class="st1" x1="18" y1="54" x2="0" y2="0"/>
		<line class="st1" x1="0" y1="0" x2="444.1" y2="0"/>
		<polyline class="st1" points="444.1,0 426.1,54 416.1,84 406.1,114 396.1,144 		"/>
		<polyline class="st1" points="48,144 222,144 396.1,144 		"/>
		<line class="st1" x1="222" y1="144" x2="222" y2="114"/>
		<polyline class="st1" points="38,114 222,114 406.1,114 		"/>
		<polyline class="st1" points="222,113 222,84 222,83 		"/>
		<polyline class="st1" points="28,84 222,84 416.1,84 		"/>
	</g>
</g>
</svg>
