<?xml version="1.0" encoding="utf-8"?>
<!-- Generator: Adobe Illustrator 21.1.0, SVG Export Plug-In . SVG Version: 6.00 Build 0)  -->
<svg version="1.1" id="Calque_1" xmlns="http://www.w3.org/2000/svg" xmlns:xlink="http://www.w3.org/1999/xlink" x="0px" y="0px"
	 viewBox="0 0 444.1 204" style="enable-background:new 0 0 444.1 204;" xml:space="preserve">
<style type="text/css">
	.st0{fill:#FFFFFF;}
	.st1{fill:none;stroke:#000000;stroke-width:5;stroke-miterlimit:10;}
</style>
<title>Select</title>
<g id="XMLID_1_">
	<g>
		<polygon class="st0" points="222,167.3 222,204 68,204 55.9,167.7 		"/>
		<polygon class="st0" points="388.5,166.8 376.1,204 222,204 222,167.3 		"/>
		<polygon class="st0" points="400.6,130.5 388.5,166.8 222,167.3 222.1,130.5 		"/>
		<polygon class="st0" points="222.1,130.5 222,167.3 55.9,167.7 43.5,130.5 		"/>
		<polygon class="st0" points="222.1,94.2 222.1,130.5 43.5,130.5 31.4,94.2 		"/>
		<polygon class="st0" points="412.7,94.2 400.6,130.5 222.1,130.5 222.1,94.2 		"/>
		<polygon class="st0" points="425.8,54.9 412.7,94.2 222.1,94.2 222.1,54.9 		"/>
		<polygon class="st0" points="222.1,54.9 222.1,94.2 31.4,94.2 18.3,54.9 		"/>
		<polygon class="st0" points="444.1,0 425.8,54.9 222.1,54.9 18.3,54.9 0,0 		"/>
	</g>
	<g>
		<line class="st1" x1="0" y1="0" x2="444.1" y2="0"/>
		<polyline class="st1" points="68,204 222,204 376.1,204 		"/>
		<polyline class="st1" points="0,0 18.3,54.9 31.4,94.2 43.5,130.5 55.9,167.7 68,204 		"/>
		<polyline class="st1" points="444.1,0 425.8,54.9 412.7,94.2 400.6,130.5 388.5,166.8 376.1,204 		"/>
		<polyline class="st1" points="18.3,54.9 222.1,54.9 425.8,54.9 		"/>
		<polyline class="st1" points="222.1,54.9 222.1,94.2 222.1,130.5 222,167.3 222,204 		"/>
		<polyline class="st1" points="43.2,130.5 43.5,130.5 222.1,130.5 400.6,130.5 400.9,130.5 		"/>
		<polyline class="st1" points="31.4,94.2 222.1,94.2 412.7,94.2 		"/>
		<polyline class="st1" points="55.9,167.7 222,167.3 388.5,166.8 		"/>
	</g>
</g>
</svg>
